<svg width="25" height="28" viewBox="0 0 25 28" fill="currentColor" xmlns="http://www.w3.org/2000/svg">
<path d="M9 22.4614C10.1424 22.4614 11.0496 23.628 11.0498 25.0415C11.0498 26.4552 10.1425 27.6226 9 27.6226C7.85751 27.6226 6.9502 26.4552 6.9502 25.0415C6.95039 23.628 7.85759 22.4614 9 22.4614ZM9 23.686C8.42429 23.686 7.93848 24.282 7.93848 25.0425C7.93867 25.8028 8.42441 26.3979 9 26.3979C9.5756 26.3979 10.0614 25.8027 10.0615 25.0425C10.0615 24.282 9.57571 23.686 9 23.686Z" fill="#2B3043" stroke="#2B3043" stroke-width="0.1"/>
<path d="M19 22.4614C20.1424 22.4614 21.0496 23.628 21.0498 25.0415C21.0498 26.4552 20.1425 27.6226 19 27.6226C17.8575 27.6226 16.9502 26.4552 16.9502 25.0415C16.9504 23.628 17.8576 22.4614 19 22.4614ZM19 23.686C18.4243 23.686 17.9385 24.282 17.9385 25.0425C17.9387 25.8028 18.4244 26.3979 19 26.3979C19.5756 26.3979 20.0614 25.8027 20.0615 25.0425C20.0615 24.282 19.5757 23.686 19 23.686Z" fill="#2B3043" stroke="#2B3043" stroke-width="0.1"/>
<path d="M3.32227 0.900391C4.34387 0.912998 5.24424 1.62507 5.63965 2.68457L5.71191 2.90039V2.90234L6.17188 4.54199L23.4658 4.82031H23.4756V4.82129C23.6683 4.84337 23.8438 4.94711 23.9697 5.10742L23.9717 5.11035C24.0966 5.28075 24.1308 5.51144 24.0684 5.71777L24.0693 5.71875L22.7891 11.9727C22.4964 13.4147 21.4532 14.501 20.1689 14.666H20.168L8.99512 16.0273L8.80371 16.5312C8.65858 17 8.70619 17.5212 8.93164 17.9424C9.15935 18.3681 9.55126 18.6236 9.96777 18.6357H20.3428C20.7066 18.6357 20.9766 18.9744 20.9766 19.3584C20.9765 19.7423 20.7065 20.0801 20.3428 20.0801H9.96094C9.11142 20.0503 8.33466 19.5393 7.87598 18.7227C7.41366 17.8926 7.32273 16.8554 7.62891 15.9346L7.62988 15.9316L7.88379 15.2471L4.50586 3.3623L4.46875 3.25098C4.27962 2.74379 3.87343 2.40485 3.41699 2.35156L3.31836 2.34473H1.5332C1.16959 2.34448 0.900391 2.00588 0.900391 1.62207C0.900504 1.23836 1.16967 0.900634 1.5332 0.900391H3.32227ZM8.99707 14.5498L20.0107 13.2227L20.0137 13.2217C20.7544 13.1531 21.385 12.5264 21.5518 11.6543V11.6523L22.6738 6.2627L6.5752 5.9873L8.99707 14.5498Z" fill="#2B3043" stroke="#2B3043" stroke-width="0.2"/>
</svg>
