<svg width="20" height="20" viewBox="0 0 20 20" fill="none" xmlns="http://www.w3.org/2000/svg">
<path d="M17.7502 7.99995C17.7502 7.80104 17.6711 7.61027 17.5305 7.46962C17.3898 7.32897 17.1991 7.24995 17.0002 7.24995C16.8012 7.24995 16.6105 7.32897 16.4698 7.46962C16.3292 7.61027 16.2502 7.80104 16.2502 7.99995H17.7502ZM3.75015 7.99995C3.75015 7.80104 3.67114 7.61027 3.53048 7.46962C3.38983 7.32897 3.19907 7.24995 3.00015 7.24995C2.80124 7.24995 2.61048 7.32897 2.46982 7.46962C2.32917 7.61027 2.25015 7.80104 2.25015 7.99995H3.75015ZM18.4702 10.53C18.5388 10.6036 18.6216 10.6627 18.7136 10.7037C18.8056 10.7447 18.9049 10.7668 19.0056 10.7685C19.1063 10.7703 19.2064 10.7518 19.2998 10.7141C19.3931 10.6764 19.478 10.6202 19.5492 10.549C19.6204 10.4778 19.6766 10.3929 19.7143 10.2995C19.752 10.2062 19.7705 10.1061 19.7687 10.0054C19.767 9.90473 19.7449 9.80541 19.7039 9.71341C19.6629 9.62141 19.6038 9.53861 19.5302 9.46995L18.4702 10.53ZM10.0002 0.99995L10.5302 0.46995C10.3895 0.3295 10.1989 0.25061 10.0002 0.25061C9.8014 0.25061 9.61078 0.3295 9.47015 0.46995L10.0002 0.99995ZM0.470154 9.46995C0.396467 9.53861 0.337365 9.62141 0.296373 9.71341C0.255381 9.80541 0.233339 9.90473 0.231562 10.0054C0.229785 10.1061 0.24831 10.2062 0.286031 10.2995C0.323752 10.3929 0.379897 10.4778 0.451115 10.549C0.522334 10.6202 0.607168 10.6764 0.700556 10.7141C0.793944 10.7518 0.893973 10.7703 0.994676 10.7685C1.09538 10.7668 1.19469 10.7447 1.28669 10.7037C1.37869 10.6627 1.46149 10.6036 1.53015 10.53L0.470154 9.46995ZM5.00015 19.75H15.0002V18.25H5.00015V19.75ZM17.7502 17V7.99995H16.2502V17H17.7502ZM3.75015 17V7.99995H2.25015V17H3.75015ZM19.5302 9.46995L10.5302 0.46995L9.47015 1.52995L18.4702 10.53L19.5302 9.46995ZM9.47015 0.46995L0.470154 9.46995L1.53015 10.53L10.5302 1.52995L9.47015 0.46995ZM15.0002 19.75C15.7295 19.75 16.429 19.4602 16.9447 18.9445C17.4604 18.4288 17.7502 17.7293 17.7502 17H16.2502C16.2502 17.69 15.6902 18.25 15.0002 18.25V19.75ZM5.00015 18.25C4.31015 18.25 3.75015 17.69 3.75015 17H2.25015C2.25015 17.7293 2.53989 18.4288 3.05561 18.9445C3.57133 19.4602 4.27081 19.75 5.00015 19.75V18.25Z" fill="currentColor"/>
</svg>
