<svg width="22" height="23" viewBox="0 0 22 23" fill="none" xmlns="http://www.w3.org/2000/svg">
<path fill-rule="evenodd" clip-rule="evenodd" d="M15.7789 17.2943C14.2099 18.7815 12.1347 19.6865 9.85904 19.6865C4.96633 19.6865 1 15.5033 1 10.3432C1 5.1831 4.96633 1 9.85904 1C14.7517 1 18.7181 5.1831 18.7181 10.3432C18.7181 12.6958 17.8936 14.8453 16.5328 16.4879L20.8427 21.0333C21.0524 21.2545 21.0524 21.613 20.8427 21.8341C20.6331 22.0553 20.2931 22.0553 20.0834 21.8341L15.7789 17.2943ZM17.6443 10.3432C17.6443 14.8779 14.1587 18.5539 9.85904 18.5539C5.55938 18.5539 2.07382 14.8779 2.07382 10.3432C2.07382 5.80857 5.55938 2.13251 9.85904 2.13251C14.1587 2.13251 17.6443 5.80857 17.6443 10.3432Z" fill="currentColor" fill-opacity="0.5" stroke="currentColor" stroke-opacity="0.5" stroke-width="0.7"/>
</svg>
